<svg version="1.1" viewBox="0 0 32 32" xml:space="preserve" xmlns="http://www.w3.org/2000/svg">
						<path d="M16.8 7.7c.9 0 1.8.4 2.4 1.1.6.7 1.5 1.1 2.5 1.1s1.9-.4 2.5-1.1c.6-.7.8-1.5.7-2.4-.2-1.4-1.7-2.5-3.5-2.4-1.7.1-3.3.7-4.5 1.8l-.7.7c-.2.2-.3.5-.1.8.1.3.4.4.7.4zM17.5 19.2l-3.7-2.3 4.6-4 1.9 1.9c.2.2.4.3.7.3h5c.6 0 1-.4 1-1s-.4-1-1-1h-4.6l-2.9-2.9c-1.4-1.4-3.6-1.5-5.1-.2l-3.5 3c-.6.4-.9 1.2-.8 2 .1.8.5 1.5 1.2 2l5.6 3.5-1.8 5.3c-.2.5.1 1.1.6 1.3.1 0 .2.1.3.1.4 0 .8-.3.9-.7l2-6c.2-.6 0-1.1-.4-1.3zM6 18c-3.3 0-6 2.7-6 6s2.7 6 6 6 6-2.7 6-6-2.7-6-6-6zm0 7c-.6 0-1-.5-1-1s.5-1 1-1 1 .5 1 1-.4 1-1 1z" />
						<path d="M26 18c-3.3 0-6 2.7-6 6s2.7 6 6 6 6-2.7 6-6-2.7-6-6-6zm0 7c-.6 0-1-.5-1-1s.5-1 1-1 1 .5 1 1-.4 1-1 1z" />
					</svg>
